<?xml version="1.0" standalone="no"?>
<!DOCTYPE svg PUBLIC "-//W3C//DTD SVG 20010904//EN"
"http://www.w3.org/TR/2001/REC-SVG-20010904/DTD/svg10.dtd">
<svg version="1.0" xmlns="http://www.w3.org/2000/svg"
width="128.000000pt" height="128.000000pt" viewBox="0 0 128.000000 128.000000"
preserveAspectRatio="xMidYMid meet">
<g transform="translate(0.000000,128.000000) scale(0.100000,-0.100000)"
fill="#000000" stroke="none">
<path d="M550 1063 c0 -4 23 -46 52 -95 l52 -88 303 0 303 0 0 95 0 95 -355 0
c-195 0 -355 -3 -355 -7z"/>
<path d="M273 663 c-132 -219 -245 -409 -252 -421 l-12 -22 506 0 c278 0 505
2 505 5 0 6 -489 818 -500 828 -4 5 -116 -171 -247 -390z m344 -49 c55 -19
143 -74 143 -89 0 -16 -100 -74 -157 -92 -90 -27 -214 -1 -299 63 -40 31 -36
40 33 81 91 53 192 67 280 37z"/>
<path d="M416 584 c-21 -7 -54 -23 -73 -35 l-35 -22 23 -18 c83 -65 227 -76
326 -26 28 15 54 31 57 36 8 12 -36 43 -92 64 -51 21 -152 21 -206 1z m143
-20 c26 -33 26 -45 0 -78 -27 -34 -64 -32 -92 5 -48 65 42 136 92 73z"/>
<path d="M740 744 c0 -3 24 -46 53 -94 l52 -90 88 0 87 0 0 95 0 95 -140 0
c-77 0 -140 -3 -140 -6z"/>
<path d="M943 403 c2 -5 27 -47 56 -95 l52 -88 105 0 104 0 0 95 0 95 -161 0
c-88 0 -158 -3 -156 -7z"/>
</g>
</svg>
