<?xml version="1.0" encoding="UTF-8" standalone="no"?>
<!DOCTYPE svg PUBLIC "-//W3C//DTD SVG 20010904//EN"
"http://www.w3.org/TR/2001/REC-SVG-20010904/DTD/svg10.dtd">
<svg
   xmlns="http://www.w3.org/2000/svg"
   preserveAspectRatio="xMidYMid meet"
   viewBox="0 0 800 800"
   height="800pt"
   width="800pt"
   version="1.0">
  <rect
     ry="159.99692"
     y="-7.1054274e-15"
     x="-1.5258788e-05"
     height="800.00006"
     width="800.00006"
     id="rect30"
fill="#b0197e"
     />
  <g
     id="g14"
     stroke="none"
     fill="#000000"
     transform="matrix(0.1,0,0,-0.1,52.950015,752.85002)">
    <path
       id="path4"
       d="m 5327,5854 c -1,-1 -420,-4 -932,-8 -511,-3 -984,-8 -1050,-10 -182,-7 -329,-17 -334,-22 -11,-11 178,-349 446,-799 l 119,-200 1657,-1 1657,-2 v 519 519 h -252 c -139,0 -491,2 -781,3 -291,1 -529,1 -530,1 z" />
    <path
       id="path6"
       d="m 2815,5732 c -17,-23 -84,-117 -115,-162 -28,-41 -151,-230 -227,-350 -47,-74 -101,-157 -118,-185 -18,-27 -71,-113 -119,-190 -47,-77 -91,-147 -96,-155 -14,-22 -81,-130 -257,-420 -86,-140 -174,-284 -196,-320 -22,-36 -46,-74 -52,-85 -16,-30 -161,-272 -206,-344 -21,-34 -39,-64 -39,-65 0,-1 -65,-110 -144,-241 -80,-132 -229,-381 -333,-554 -103,-172 -198,-330 -210,-350 -12,-20 -29,-47 -37,-61 -8,-14 -60,-101 -116,-195 C 494,1962 440,1872 430,1855 421,1839 355,1728 285,1610 146,1378 98,1295 70,1239 l -19,-36 2397,2 c 2256,3 2959,8 3120,24 12,1 -5,38 -52,114 -7,12 -60,101 -117,197 -57,96 -189,319 -294,495 -106,176 -198,331 -206,345 -8,14 -19,32 -25,40 -6,8 -23,35 -36,60 -14,25 -184,308 -378,630 -194,322 -360,596 -367,610 -8,14 -22,37 -31,52 -9,15 -119,195 -243,400 -199,329 -483,796 -510,838 -7,13 -248,403 -410,667 -24,40 -49,74 -54,76 -6,3 -19,-7 -30,-21 z m 157,-2296 c 160,-9 356,-53 475,-107 24,-10 45,-19 49,-19 13,0 228,-112 324,-169 211,-126 344,-238 333,-280 -3,-11 -28,-40 -57,-64 -51,-44 -198,-147 -209,-147 -3,0 -23,-11 -43,-25 -20,-14 -98,-56 -173,-94 -341,-172 -479,-211 -761,-216 -91,-2 -194,1 -230,6 -131,18 -146,21 -190,29 -63,12 -235,59 -275,75 -11,4 -56,21 -100,38 -226,85 -532,284 -579,376 -28,54 3,112 98,182 88,66 272,174 374,220 48,22 96,45 107,50 91,42 331,111 432,125 26,3 50,7 53,9 3,2 50,6 105,10 55,4 101,8 103,10 1,1 15,1 30,0 15,-2 75,-6 134,-9 z" />
    <path
       id="path8"
       d="m 2737,3274 c -1,-1 -40,-4 -87,-8 -47,-3 -98,-8 -115,-11 -46,-8 -97,-17 -125,-22 -65,-11 -244,-79 -353,-133 -119,-60 -367,-208 -367,-219 1,-10 181,-144 249,-185 142,-84 308,-146 496,-185 148,-31 251,-39 435,-36 341,6 580,76 884,259 120,72 156,101 156,125 0,48 -134,153 -306,240 -56,28 -104,51 -108,51 -3,0 -25,9 -49,19 -57,27 -199,70 -247,76 -22,3 -71,10 -109,15 -55,9 -346,20 -354,14 z m 173,-76 c 60,-26 118,-76 167,-141 115,-156 113,-224 -14,-389 -73,-95 -175,-149 -267,-141 -97,9 -232,117 -282,228 -70,152 -24,312 115,406 30,20 70,41 90,46 50,13 149,9 191,-9 z" />
    <path
       id="path10"
       d="m 4847,4104 c -1,-1 -148,-4 -327,-8 -179,-4 -338,-8 -355,-10 -16,-2 -43,-5 -60,-5 -57,-2 -60,-12 -26,-79 17,-34 77,-139 133,-234 90,-154 245,-421 300,-518 11,-19 40,-69 64,-111 l 44,-76 478,1 477,1 2,518 2,517 -42,1 c -120,1 -689,4 -690,3 z" />
    <path
       id="path12"
       d="m 5867,2244 c -1,-1 -123,-5 -272,-8 -319,-8 -436,-17 -435,-34 1,-4 12,-25 25,-47 14,-22 28,-47 32,-55 3,-8 72,-125 153,-260 165,-277 289,-485 306,-515 6,-11 24,-42 41,-70 l 29,-50 h 572 l 572,-1 v 518 c 0,285 -3,518 -7,519 -14,1 -1015,4 -1016,3 z" />
  </g>
</svg>
